<svg xmlns="http://www.w3.org/2000/svg" width="150" height="83.535" viewBox="0 0 150 83.535"><defs><style>.a{fill:#2f7bc3;}</style></defs><g transform="translate(-442 -270.465)"><g transform="translate(460.393 257.765)"><path class="a" d="M5.4,45.822A12.522,12.522,0,1,0,17.92,33.3,12.537,12.537,0,0,0,5.4,45.822ZM17.92,38.309a7.513,7.513,0,1,1-7.513,7.513A7.521,7.521,0,0,1,17.92,38.309Z" transform="translate(0 30.99)"/><path class="a" d="M77.667,74.308H34.3A22.572,22.572,0,0,0,11.9,54.273a2.5,2.5,0,0,0,0,5.009A17.551,17.551,0,0,1,29.433,76.812a2.5,2.5,0,0,0,2.5,2.5h48.1a2.5,2.5,0,0,0,2.5-2.5,17.539,17.539,0,0,1,10.131-15.87l1.478,4.905a12.421,12.421,0,1,0,5.921-1.557c-.385,0-.748.079-1.124.114L97.465,59.5a17.5,17.5,0,0,1,2.6-.215,2.5,2.5,0,1,0,0-5.009A22.56,22.56,0,0,0,96,54.647L83.9,14.481a2.506,2.506,0,0,0-2.4-1.78H66.808a2.5,2.5,0,0,0,0,5.009h12.83l11.574,38.4A22.581,22.581,0,0,0,77.667,74.308Zm29.915,2.5a7.513,7.513,0,1,1-11.948-6.033l2.037,6.757a2.506,2.506,0,0,0,2.4,1.78,2.508,2.508,0,0,0,2.4-3.228l-2.035-6.753A7.5,7.5,0,0,1,107.581,76.812Z" transform="translate(6.018)"/></g><rect class="a" width="41" height="4" rx="2" transform="translate(442 350)"/><rect class="a" width="11" height="4" rx="2" transform="translate(488 350)"/><rect class="a" width="44" height="4" rx="2" transform="translate(513 350)"/><rect class="a" width="31" height="4" rx="2" transform="translate(561 350)"/></g></svg>