<svg xmlns="http://www.w3.org/2000/svg" width="150" height="69.677" viewBox="0 0 150 69.677"><defs><style>.a{fill:#2f7bc3;}</style></defs><g transform="translate(-442 -284.323)"><rect class="a" width="41" height="4" rx="2" transform="translate(442 350)"/><rect class="a" width="11" height="4" rx="2" transform="translate(488 350)"/><rect class="a" width="44" height="4" rx="2" transform="translate(513 350)"/><rect class="a" width="31" height="4" rx="2" transform="translate(561 350)"/><g transform="translate(452.179 269.894)"><path class="a" d="M20.606,36.071a17.606,17.606,0,1,0,17.463,19.76L47,62.779a2.313,2.313,0,0,0,1.421.488H72.23a2.315,2.315,0,0,0,2.134-1.423L85.355,35.472c.014-.034.008-.069.02-.1a15.25,15.25,0,0,0,1.215-5.928v-.348A10.155,10.155,0,0,0,74.87,19.061l-19.9,3.108L12.71,19.49a2.285,2.285,0,0,0-2.27,1.389,2.314,2.314,0,0,0,.54,2.6l3.578,3.363A52.556,52.556,0,0,0,28.2,36.112l-.78,1.333A17.51,17.51,0,0,0,20.606,36.071Zm0,30.587A12.981,12.981,0,1,1,25.052,41.5L18.609,52.509A2.313,2.313,0,0,0,22.6,54.845l6.442-11.011a12.966,12.966,0,0,1-8.439,22.824ZM75.584,23.633a5.526,5.526,0,0,1,6.381,5.461v.348A10.648,10.648,0,0,1,69.718,39.967l-13.134-2,.69-11.477ZM52.631,26.656,51.993,37.27l-8.6-1.308A47.809,47.809,0,0,1,18.867,24.516ZM32.518,37.9A52.75,52.75,0,0,0,42.7,40.534l26.322,4a15,15,0,0,0,7.932-.933L70.687,58.642H49.212L37.75,49.722A17.616,17.616,0,0,0,31.4,39.8Z" transform="translate(0 5.921)"/><path class="a" d="M63.994,41.992a17.526,17.526,0,0,0-4.195.526l-2.1-5.363,3.95-1.7a2.309,2.309,0,0,0,1.256-2.92L59.032,21.978a2.311,2.311,0,0,0-3.069-1.333c-1.364.576-2.9,1.206-4.064,1.668L49.39,15.9a2.342,2.342,0,0,0-2.5-1.446L33.184,16.526a2.313,2.313,0,1,0,.691,4.574l11.878-1.8L48.4,26.072s0,0,0,0l0,0,7.084,18.117a17.591,17.591,0,1,0,8.508-2.2Zm-8.47-16.147,2.288,6.227-1.8.774-2.43-6.214C54.14,26.413,54.755,26.164,55.524,25.845Zm8.47,46.734a12.967,12.967,0,0,1-6.8-24.016l4.645,11.878a2.314,2.314,0,1,0,4.309-1.685L61.5,46.864a12.979,12.979,0,1,1,2.5,25.715Z" transform="translate(37.043 0)"/><path class="a" d="M25.243,36.03H37.259a2.313,2.313,0,0,0,0-4.626H25.243a2.313,2.313,0,1,0,0,4.626Z" transform="translate(26.165 22.286)"/></g></g></svg>